<svg xmlns="http://www.w3.org/2000/svg" xmlns:xlink="http://www.w3.org/1999/xlink" width="44" height="33" viewBox="0 0 44 33">
    <defs>
        <path id="a" d="M0 .256h39.278V25H0z"/>
        <path id="c" d="M.301.572h8.137v8.35H.3z"/>
    </defs>
    <g fill="none" fill-rule="evenodd">
        <g transform="translate(0 7.428)">
            <mask id="b" fill="#fff">
                <use xlink:href="#a"/>
            </mask>
            <path fill="#231F20" d="M.033 16.383c1.283 1.93 2.863 3.78 4.717 5.219.927.723 1.934 1.345 3.017 1.788 1.084.424 2.251.684 3.403.898 2.316.407 4.701.439 7.01.009 2.311-.409 4.522-1.268 6.587-2.38 2.06-1.136 3.99-2.508 5.674-4.147 1.7-1.625 3.15-3.496 4.47-5.45 1.283-1.976 2.591-3.978 3.49-6.135.207-.541.402-1.096.463-1.655a2.274 2.274 0 0 0-.044-.807c-.07-.257-.218-.442-.428-.678-.32-.425-.87-.716-1.354-1.036-.5-.31-1.012-.606-1.527-.891l-.002-.002-.024-.015c-.565-.371-1.34-.51-2.062-.49-.36.016-.75.043-1.074.15a3.412 3.412 0 0 0-.943.52c-1.17.903-2.082 2.152-2.877 3.413l.005-.01-4.083 8.27c-1.609 2.662-4.01 4.822-6.848 6.069a13.455 13.455 0 0 1-4.489 1.076 20.89 20.89 0 0 1-4.606-.29c-3.016-.546-5.993-1.69-8.475-3.427M0 16.346a22.475 22.475 0 0 0 8.528 3.345c1.511.252 3.048.337 4.577.252a13.251 13.251 0 0 0 4.42-1.096c2.783-1.242 5.145-3.418 6.695-6.012l4.032-8.288.006-.011c.811-1.3 1.71-2.56 2.944-3.527.307-.242.657-.44 1.04-.578.4-.13.776-.15 1.171-.172.783-.017 1.583.09 2.298.552l-.025-.016c.525.286 1.04.581 1.551.893.496.33 1.042.593 1.456 1.11.184.201.423.492.505.815.09.324.091.647.063.958-.066.624-.266 1.201-.476 1.765-.915 2.234-2.208 4.237-3.487 6.244-1.317 1.981-2.776 3.895-4.512 5.549-1.717 1.67-3.686 3.072-5.779 4.227-4.177 2.351-9.203 3.215-13.898 2.267-1.173-.235-2.33-.509-3.452-.963-1.107-.473-2.126-1.122-3.056-1.87a20.157 20.157 0 0 1-4.6-5.444" mask="url(#b)"/>
        </g>
        <g transform="translate(35 -.572)">
            <mask id="d" fill="#fff">
                <use xlink:href="#c"/>
            </mask>
            <path fill="#231F20" d="M.307 8.882c.715-.925 1.43-1.835 2.043-2.807.636-.944 1.13-1.985 1.72-3.01.29-.51.584-1.018.935-1.5.176-.24.36-.477.599-.682a1.21 1.21 0 0 1 .894-.308c.633.016 1.21.4 1.517.917.306.523.412 1.123.423 1.705a.024.024 0 0 1-.024.026.025.025 0 0 1-.025-.023c-.044-.576-.186-1.155-.5-1.626-.314-.466-.85-.767-1.393-.75-.57-.04-.9.464-1.225.927-.315.475-.584.989-.848 1.504-.526 1.018-.937 2.144-1.66 3.103-.708.947-1.496 1.83-2.421 2.56a.025.025 0 0 1-.035-.005c-.008-.01-.007-.022 0-.031" mask="url(#d)"/>
        </g>
        <path fill="#231F20" d="M38.123 9.99c.01-.875.138-1.731.266-2.587.142-.854.38-1.69.607-2.524.225-.836.466-1.668.747-2.49.145-.408.3-.815.484-1.21.201-.37.357-.837.798-1.02.013-.004.027 0 .032.014.004.01 0 .025-.012.03l-.01.006c-.368.182-.509.653-.67 1.029-.15.4-.272.812-.384 1.227a38.7 38.7 0 0 0-.596 2.507c-.174.843-.3 1.695-.506 2.53-.217.835-.415 1.673-.707 2.496a.025.025 0 0 1-.032.016c-.01-.003-.017-.014-.017-.024M27.594 18.518a33.648 33.648 0 0 1 2.192-4.948c.442-.791.897-1.59 1.514-2.28.624-.643 1.396-1.342 2.355-1.378.014-.001.025.01.026.024 0 .01-.009.02-.019.025-.843.312-1.434.976-1.982 1.654a30.278 30.278 0 0 0-1.548 2.158 41.255 41.255 0 0 0-2.492 4.763.025.025 0 0 1-.032.014.026.026 0 0 1-.014-.032"/>
    </g>
</svg>
